<?xml version="1.0" encoding="UTF-8"?>
<svg id="Layer_2" data-name="Layer 2" xmlns="http://www.w3.org/2000/svg" viewBox="0 0 113.31 34.75">
  <defs>
    <style>
      .cls-1 {
        fill: #231f20;
      }

      .cls-2 {
        fill: #fdb817;
      }
    </style>
  </defs>
  <g id="Layer_1-2" data-name="Layer 1">
    <g>
      <path class="cls-1" d="M45.74,1.89c1.13.88,1.7,2.08,1.7,3.6,0,.59-.08,1.11-.23,1.57s-.35.86-.6,1.19c-.25.34-.54.64-.87.89-.34.26-.67.48-1.02.66.56.2,1.08.43,1.54.7s.86.58,1.2.94c.34.36.6.8.78,1.3s.27,1.08.27,1.74c0,.86-.17,1.61-.51,2.27-.34.66-.82,1.21-1.44,1.66-.62.45-1.37.78-2.24,1.01-.88.23-1.84.34-2.9.34h-8.87V.57h8.59c1.93,0,3.47.44,4.6,1.32ZM43.11,8.03c.66-.43.98-1.1.98-2,0-.79-.29-1.4-.86-1.83-.57-.43-1.41-.65-2.5-.65h-4.84v5.13h4.59c1.09,0,1.97-.22,2.62-.65ZM44.17,16.1c.66-.45.98-1.11.98-1.99,0-.82-.32-1.46-.97-1.92-.65-.46-1.64-.69-2.97-.69h-5.33v5.26h5.58c1.15,0,2.05-.22,2.71-.67Z"/>
      <path class="cls-1" d="M70.71,19.76h-3.56l-1.95-4.63h-9.07l-1.97,4.63h-3.45L59.14.43h3.12l8.44,19.33ZM60.65,4.46l-3.29,7.68h6.61l-3.32-7.68Z"/>
      <path class="cls-1" d="M87.37.57h3.34v19.19h-2.82l-10.56-13.65v13.65h-3.34V.57h3.12l10.26,13.27V.57Z"/>
      <path class="cls-1" d="M111.77,11.45c0,1.43-.2,2.68-.59,3.76-.39,1.08-.95,1.98-1.66,2.7-.71.72-1.58,1.26-2.59,1.62-1.01.36-2.15.53-3.41.53s-2.37-.18-3.37-.53c-1.01-.36-1.86-.89-2.58-1.6-.71-.71-1.26-1.59-1.65-2.65s-.58-2.27-.58-3.66V.57h3.34v10.91c0,1.79.43,3.15,1.3,4.08s2.06,1.4,3.58,1.4,2.69-.45,3.56-1.34,1.3-2.23,1.3-4V.57h3.34v10.88Z"/>
    </g>
    <g>
      <path class="cls-1" d="M37.65,25.57c.44.34.66.8.66,1.39,0,.23-.03.43-.09.61-.06.18-.14.33-.23.46-.09.13-.21.25-.34.35s-.26.18-.39.26c.22.08.42.17.6.27.18.1.33.22.46.37.13.14.23.31.3.5s.11.42.11.67c0,.33-.07.62-.2.88-.13.25-.32.47-.56.64-.24.17-.53.3-.87.39-.34.09-.71.13-1.12.13h-3.43v-7.43h3.33c.75,0,1.34.17,1.78.51ZM36.63,27.95c.25-.17.38-.43.38-.77,0-.31-.11-.54-.33-.71-.22-.17-.54-.25-.97-.25h-1.87v1.98h1.78c.42,0,.76-.08,1.02-.25ZM37.05,31.07c.25-.17.38-.43.38-.77,0-.32-.13-.57-.38-.74-.25-.18-.63-.27-1.15-.27h-2.06v2.04h2.16c.44,0,.79-.09,1.05-.26Z"/>
      <path class="cls-1" d="M47.36,30.25c-.19.47-.46.88-.81,1.23-.35.35-.76.63-1.23.83-.47.21-1,.31-1.57.31s-1.1-.1-1.57-.3-.88-.48-1.22-.82c-.34-.35-.6-.75-.8-1.22s-.29-.96-.29-1.49.1-1.02.29-1.49.46-.88.81-1.23c.35-.35.76-.63,1.23-.83.47-.21,1-.31,1.57-.31s1.1.1,1.57.3c.47.2.88.48,1.22.82.34.35.6.75.8,1.22.19.47.29.96.29,1.49s-.1,1.02-.29,1.49ZM46.09,27.76c-.12-.32-.3-.6-.52-.84-.22-.24-.49-.43-.8-.57-.31-.14-.65-.21-1.02-.21s-.71.07-1.01.21c-.31.14-.57.33-.79.56s-.39.52-.51.84c-.12.32-.19.66-.19,1.02s.06.7.19,1.02c.12.32.3.6.52.84s.49.43.8.57c.31.14.65.21,1.02.21s.71-.07,1.01-.21c.31-.14.57-.33.79-.56.22-.24.39-.52.51-.84.12-.32.19-.66.19-1.02s-.06-.7-.19-1.02Z"/>
      <path class="cls-1" d="M56.38,30.25c-.19.47-.46.88-.81,1.23-.35.35-.76.63-1.23.83-.47.21-1,.31-1.57.31s-1.1-.1-1.57-.3-.88-.48-1.22-.82c-.34-.35-.6-.75-.8-1.22s-.29-.96-.29-1.49.1-1.02.29-1.49.46-.88.81-1.23c.35-.35.76-.63,1.23-.83.47-.21,1-.31,1.57-.31s1.1.1,1.57.3c.47.2.88.48,1.22.82.34.35.6.75.8,1.22.19.47.29.96.29,1.49s-.1,1.02-.29,1.49ZM55.11,27.76c-.12-.32-.3-.6-.52-.84-.22-.24-.49-.43-.8-.57-.31-.14-.65-.21-1.02-.21s-.71.07-1.01.21c-.31.14-.57.33-.79.56s-.39.52-.51.84c-.12.32-.19.66-.19,1.02s.06.7.19,1.02c.12.32.3.6.52.84s.49.43.8.57c.31.14.65.21,1.02.21s.71-.07,1.01-.21c.31-.14.57-.33.79-.56.22-.24.39-.52.51-.84.12-.32.19-.66.19-1.02s-.06-.7-.19-1.02Z"/>
      <path class="cls-1" d="M64.82,32.49h-1.58l-2.54-3.34-1.16,1.19v2.15h-1.29v-7.43h1.29v3.74l3.53-3.74h1.6l-3.09,3.19,3.23,4.23Z"/>
      <path class="cls-1" d="M72.51,32.49h-1.58l-2.54-3.34-1.16,1.19v2.15h-1.29v-7.43h1.29v3.74l3.53-3.74h1.6l-3.09,3.19,3.23,4.23Z"/>
      <path class="cls-1" d="M79.13,26.24h-4.2v1.91h3.72v1.18h-3.72v1.98h4.26v1.18h-5.55v-7.43h5.5v1.18Z"/>
      <path class="cls-1" d="M86.24,26.24h-4.2v1.91h3.72v1.18h-3.72v1.98h4.26v1.18h-5.55v-7.43h5.5v1.18Z"/>
      <path class="cls-1" d="M93.37,28.66c-.16.32-.37.58-.64.8-.27.21-.58.37-.95.48-.36.11-.75.16-1.16.16h-1.48v2.39h-1.29v-7.43h2.93c.43,0,.82.06,1.17.18.35.12.65.28.89.5s.43.48.56.79c.13.3.2.65.2,1.03,0,.42-.08.79-.23,1.1ZM91.84,26.58c-.29-.22-.68-.34-1.17-.34h-1.52v2.68h1.52c.5,0,.89-.12,1.18-.37s.43-.57.43-.97c0-.45-.15-.78-.44-1.01Z"/>
      <path class="cls-1" d="M96.31,25.06v7.43h-1.29v-7.43h1.29Z"/>
      <path class="cls-1" d="M103.48,25.06h1.29v7.43h-1.09l-4.09-5.28v5.28h-1.29v-7.43h1.21l3.97,5.14v-5.14Z"/>
      <path class="cls-1" d="M112.7,31.91c-.22.14-.46.27-.72.37-.26.11-.54.19-.83.25-.3.06-.61.09-.93.09-.58,0-1.11-.1-1.58-.29-.47-.19-.88-.46-1.21-.81-.34-.34-.6-.75-.78-1.21s-.28-.97-.28-1.52.09-1.02.28-1.49.45-.88.79-1.23c.34-.35.74-.63,1.22-.83.47-.21.98-.31,1.54-.31.33,0,.62.02.89.07.27.05.51.11.74.2.23.08.44.19.64.31.2.12.4.27.59.43l-.83.99c-.14-.12-.29-.23-.44-.33-.15-.1-.3-.18-.47-.25s-.34-.12-.54-.16c-.19-.04-.41-.06-.64-.06-.34,0-.66.07-.95.21s-.55.33-.76.57-.39.52-.51.84c-.12.32-.19.66-.19,1.02,0,.38.06.74.18,1.06.12.33.29.61.51.85.22.24.49.42.8.56s.65.2,1.03.2c.35,0,.68-.05.99-.15.31-.1.57-.24.8-.41v-1.4h-1.9v-1.14h3.16v3.12c-.18.16-.39.3-.61.45Z"/>
    </g>
    <g id="gIpd0L">
      <g>
        <path class="cls-2" d="M23.62,34.75H2.45c-1.3-.27-2.3-1.27-2.44-2.61V2.68C.11,1.27,1.21.16,2.62,0h20.7c1.47.07,2.68,1.27,2.75,2.74v29.38c-.09,1.23-1.23,2.46-2.45,2.61ZM2.91,1.45c-1,.11-1.41.66-1.48,1.64v28.57c.08,1.09.58,1.58,1.66,1.66,6.84-.07,13.71.13,20.53-.1.72-.27.96-.83,1.02-1.56V3.09c-.08-1.09-.58-1.58-1.66-1.66l-20.07.02Z"/>
        <path class="cls-2" d="M3.51,3.62l18.85-.02c.38,0,.74.26.78.65l-.04,10.55c-.13.26-.38.41-.67.41H3.63c-.35,0-.66-.23-.71-.58l.05-10.61c.13-.2.3-.37.54-.41ZM21.72,5.09H4.35v8.69h17.37V5.09Z"/>
        <path class="cls-2" d="M17.83,18.14l4.73-.02c.25,0,.44.19.54.41l.03,11.98c-.06.43-.37.61-.78.65-1.35.13-2.9-.1-4.28,0-.25-.03-.55-.19-.65-.44l-.06-11.95c.03-.29.19-.51.46-.63ZM21.72,19.55h-2.92v10.11h2.92v-10.11Z"/>
        <path class="cls-2" d="M10.77,25.33c.77-.13,3.58-.11,4.39-.02.5.06.72.28.78.78.11.98.09,3.21,0,4.21-.05.53-.24.78-.78.85-.98.11-3.21.09-4.21,0-.53-.05-.78-.24-.85-.78-.1-.93-.1-3.35,0-4.28.05-.42.22-.69.66-.76ZM14.46,26.81h-2.85v2.85h2.85v-2.85Z"/>
        <path class="cls-2" d="M10.64,18.14l4.89.04c.31.18.39.38.43.73.1,1.02.1,3.2,0,4.21-.05.51-.28.73-.78.78-1.05.1-3.23.1-4.28,0-.47-.04-.69-.23-.78-.71.12-1.38-.15-3,0-4.34.04-.34.2-.57.52-.7ZM14.46,19.55h-2.85v2.92h2.85v-2.92Z"/>
        <path class="cls-2" d="M3.51,25.33c1.4.1,3.1-.18,4.46-.02.47.06.67.33.71.78.1,1.05.1,3.23,0,4.28-.04.47-.23.69-.71.78-1.38-.1-2.92.13-4.28,0-.4-.04-.73-.21-.78-.65-.16-1.4.13-3.11,0-4.55.02-.3.29-.57.59-.63ZM7.26,26.81h-2.92v2.85h2.92v-2.85Z"/>
        <path class="cls-2" d="M3.38,18.14l4.74-.02c.33.04.54.33.58.65-.1,1.42.13,3.02,0,4.42-.03.37-.26.66-.65.71-1.42-.11-3.02.14-4.42,0-.36-.03-.64-.19-.71-.58.13-1.46-.17-3.19,0-4.62.03-.28.2-.47.46-.56ZM7.26,19.55h-2.92v2.92h2.82l.1-.1v-2.82Z"/>
      </g>
    </g>
  </g>
</svg>