<?xml version="1.0" encoding="UTF-8"?>
<svg id="Layer_2" xmlns="http://www.w3.org/2000/svg" viewBox="0 0 367 372.5">
  <defs>
    <style>
      .cls-1 {
        fill: #fff;
      }
    </style>
  </defs>
  <g id="Layer_1-2" data-name="Layer_1">
    <g>
      <path class="cls-1" d="M88.56,178.17c0,53.89.04,107.79-.08,161.68,0,3.55.81,4.59,4.48,4.57,34.56-.15,69.11-.13,103.67-.02,3.15.01,4.26-.58,4.19-4.02-.24-11.85-.19-23.7-.02-35.55.04-3.05-.72-4-3.89-3.98-19.59.15-39.17.08-58.76.07-1.37,0-2.76.05-4.11-.12-3.23-.42-4.91-2.6-4.98-5.6-.07-2.85,1.5-5.03,4.49-5.63,1.57-.32,3.22-.31,4.84-.31,19.09-.02,38.18,0,57.26-.02,5.91,0,5.01.48,5.08-4.89.04-3.12-.19-6.25.06-9.35.24-2.85-.76-3.52-3.53-3.5-19.84.12-39.67.07-59.51.06-5.81,0-8.71-1.92-8.77-5.8-.06-3.86,3.01-6,8.64-6,19.84,0,39.67-.07,59.51.07,2.98.02,3.72-.84,3.7-3.75-.13-18.71-.08-37.43-.06-56.14.01-15.55,9.36-24.87,24.92-24.87,38.92,0,77.85,0,116.77,0,15.04,0,24.38,9.19,24.38,24.09.02,49.65-.19,99.31.15,148.96.09,12.53-8.95,24.45-24.42,24.39-39.17-.16-78.35-.05-117.52-.06-10.51,0-18.27-4.51-22.42-14.3-1.07-2.53-2.74-2.04-4.48-2.04-39.67-.02-79.34-.02-119.02-.02-13.22,0-26.45.02-39.67,0-14.09-.03-23.62-9.64-23.66-23.78-.01-4.62-.16-9.24.06-13.85.13-2.72-.88-3.49-3.42-3.28-2.23.18-4.49.12-6.73-.02-3.51-.22-5.65-2.42-5.7-5.65-.05-3.39,2.18-5.62,5.88-5.85.62-.04,1.25-.02,1.87-.02q8.04-.05,8.04-8.28c0-6.99-.1-13.97.05-20.96.05-2.35-.7-3.08-2.97-2.9-2.23.18-4.49.11-6.73.02-3.72-.15-6.05-2.35-6.14-5.67-.1-3.51,2.22-5.91,6.1-6.12,2.36-.12,4.74-.12,7.11,0,1.87.09,2.65-.43,2.62-2.48-.1-8.98-.09-17.96,0-26.95.02-1.97-.65-2.64-2.58-2.58-2.61.08-5.25.11-7.85-.13-3.48-.32-5.49-2.68-5.4-5.94.09-3.26,2.22-5.36,5.8-5.54,2.49-.12,4.99-.15,7.48-.02,2,.1,2.55-.72,2.54-2.62-.07-8.98-.07-17.96,0-26.95.02-1.89-.45-2.73-2.49-2.6-2.49.15-4.99.12-7.48,0-3.47-.17-5.72-2.4-5.85-5.57-.14-3.37,2.07-5.89,5.65-6.15,2.48-.18,5-.18,7.48-.02,2.19.14,2.72-.74,2.7-2.79-.1-8.73-.15-17.47.03-26.2.05-2.66-.99-3.17-3.26-3.06-2.36.11-4.75.11-7.1-.1-3.51-.31-5.55-2.61-5.5-5.86.05-3.23,2.2-5.44,5.71-5.63,2.49-.14,4.99-.15,7.48-.04,1.89.08,2.65-.5,2.64-2.52-.08-9.11-.08-18.21,0-27.32.02-1.85-.68-2.37-2.41-2.29-2.37.11-4.74.08-7.11,0C2.38,96.24,0,93.98,0,90.49c0-3.47,2.38-5.7,6.32-5.92.37-.02.75,0,1.12,0q8.35-.09,8.35-8.29c0-6.86-.11-13.73.06-20.58.06-2.52-.78-3.29-3.18-3.14-2.36.15-4.75.13-7.1-.07C2.05,52.19-.01,49.93,0,46.68c.01-3.25,2.14-5.42,5.63-5.73.5-.04,1-.05,1.5-.06,8.69-.2,8.62-.2,8.72-8.76.05-4.6-.52-9.23.46-13.8C18.61,7.52,27.26.31,38.32.01c1-.03,2,0,2.99,0,79.59,0,159.19,0,238.78,0,16.21,0,25.3,9.06,25.31,25.19,0,43.66,0,87.33,0,130.99,0,1.12.08,2.26-.05,3.37-.37,3.29-2.29,5.22-5.53,5.59-2.93.34-5.71-2.14-6.17-5.34-.17-1.23-.08-2.49-.08-3.74,0-43.66-.15-87.33.12-130.99.06-8.86-5.29-13.44-13.47-13.41-62.38.22-124.76.16-187.13.02-3.97,0-4.61,1.2-4.61,4.8.11,53.89.08,107.79.08,161.68ZM76.92,178.31c0-53.39,0-106.77,0-160.16,0-1.25-.08-2.5.01-3.74.14-1.87-.48-2.66-2.51-2.64-12.1.08-24.2-.07-36.3.1-6.11.08-10.35,4.69-10.45,10.9-.08,4.99.1,9.98-.07,14.97-.08,2.43.63,3.28,3.13,3.21,5.73-.16,11.47-.09,17.21-.03,4.53.05,7.2,2.27,7.18,5.84-.03,3.56-2.68,5.75-7.25,5.81-5.61.07-11.23.13-16.84-.03-2.51-.07-3.5.55-3.44,3.28.17,8.48.15,16.96,0,25.44-.04,2.55.57,3.49,3.28,3.4,5.73-.2,11.47-.11,17.21-.04,4.31.06,7.14,2.59,7.02,6.1-.11,3.41-2.82,5.65-6.99,5.68-5.99.04-11.98.08-17.96-.03-1.97-.04-2.57.6-2.55,2.55.08,8.98.1,17.96,0,26.94-.02,2.19.79,2.75,2.83,2.71,5.86-.11,11.72-.04,17.59-.03,1.49,0,3-.06,4.31.88,2.12,1.52,3.12,3.51,2.54,6.13-.71,3.18-2.96,4.58-5.97,4.64-6.11.12-12.22.14-18.33.03-2.27-.04-3,.68-2.97,2.97.12,8.73.14,17.46,0,26.19-.04,2.48.97,2.86,3.08,2.82,5.86-.11,11.73-.09,17.59-.01,4.1.06,6.82,2.49,6.84,5.89.02,3.44-2.69,5.84-6.78,5.87-5.99.05-11.98.09-17.96-.03-2.12-.04-2.78.62-2.75,2.74.1,8.85.11,17.71,0,26.57-.03,2.34.76,2.97,3.01,2.92,5.98-.13,11.97,0,17.96-.05,2.76-.02,4.89.95,6.01,3.54,1.73,3.98-.98,7.94-5.85,8.12-5.98.22-11.97.17-17.96.03-2.42-.06-3.22.67-3.18,3.15.14,8.6.15,17.21,0,25.82-.05,2.61.96,3.08,3.26,3.03,5.73-.13,11.48-.09,17.21-.03,4.31.04,7.15,2.55,7.05,6.06-.1,3.42-2.8,5.69-6.95,5.71-5.86.04-11.73.11-17.59-.04-2.27-.06-3,.57-2.97,2.92.13,8.73.14,17.46,0,26.19-.04,2.49.76,3.19,3.18,3.13,6.11-.14,12.22-.12,18.33,0,3.75.07,6.26,2.83,5.96,6.19-.3,3.3-2.74,5.37-6.87,5.45-5.86.12-11.73.12-17.59,0-2.22-.04-3.09.58-3.01,2.93.16,4.73.02,9.48.05,14.22.05,7.61,4.19,11.76,11.81,11.79,10.73.04,21.45.04,32.18,0,5.86-.02,5.26.75,5.26-5.1.02-53.64,0-107.27,0-160.91ZM355.21,273.86c0-24.69.02-49.38,0-74.07,0-9.03-3.95-12.92-13.03-12.92-38.91,0-77.81,0-116.72,0-8.91,0-12.87,4.04-12.87,13.08,0,49.26,0,98.51,0,147.77,0,8.88,4.11,12.98,13.02,12.99,38.66,0,77.31,0,115.97,0,9.72,0,13.62-3.86,13.63-13.52.01-24.44,0-48.88,0-73.32Z"/>
      <path class="cls-1" d="M125.51,98.8c-.06-40.79,32.76-71.16,70.82-68.1,35.4,2.85,62.65,33.74,60.21,69.26-1.68,24.42-13.88,42.68-35.42,54.51-3.93,2.16-7.38,1.37-9.06-1.83-1.72-3.27-.47-6.24,3.54-8.5,19.53-11.01,29.51-27.64,29.26-50.14-.28-24.23-19.91-46.84-43.88-50.75-30.2-4.92-56.66,13.29-62.87,43.27-6.21,30.01,17.03,60.86,47.59,63.19,1.74.13,3.48.26,5.22.44,3.93.39,6.18,2.76,5.95,6.22-.21,3.23-2.67,5.36-6.42,5.35-14.44-.04-27.5-4.45-38.89-13.23-17.06-13.15-25.6-30.72-26.06-49.68Z"/>
      <path class="cls-1" d="M172.24,111.1c-.02-4.83,1.96-7.37,5.17-7.77,3.16-.4,5.86,1.98,6.57,5.79,1.06,5.68,4.6,8.35,9.21,6.91,3.38-1.06,5.22-3.5,5.16-6.95-.06-3.43-1.93-5.86-5.37-6.78-1.08-.29-2.21-.4-3.32-.51-8.8-.93-15.39-6.75-17.18-15.21-1.69-8,2.26-16.36,9.98-20.29,2.33-1.18,2.83-2.6,2.81-4.94-.02-3.14,1.35-5.57,4.71-6.3,2.62-.57,4.6.47,6.11,2.59.86,1.2.97,2.59.82,3.94-.24,2.25.47,3.48,2.68,4.54,6.05,2.89,9.39,7.96,10.44,14.56.65,4.1-1.3,7.41-4.77,8.08-3.42.66-6.17-1.8-6.84-6.13-.66-4.27-3.64-7.03-7.47-6.9-3.7.12-6.64,2.94-6.88,6.59-.29,4.31,2.08,7.42,6.74,7.79,6.02.47,11.18,2.35,15.04,7.13,7.64,9.45,4.88,23.01-5.99,28.64-2.18,1.13-3.09,2.23-3,4.74.16,3.99-2.14,6.54-5.45,6.71-3.37.17-6.12-2.48-6.11-6.57,0-2.63-.93-3.87-3.21-5.08-6.18-3.29-9.36-8.7-9.85-14.57Z"/>
      <path class="cls-1" d="M283.46,250.71c-16.59,0-33.17,0-49.76,0-7.02,0-8.44-1.46-8.44-8.6,0-11.6-.02-23.2,0-34.79.01-5.69,1.91-7.54,7.67-7.54,33.8,0,67.59-.01,101.39,0,5.55,0,7.64,2.1,7.65,7.72.03,11.85.03,23.7,0,35.54-.01,5.64-2.01,7.65-7.64,7.66-16.96.03-33.92,0-50.88.01ZM283.35,238.9c14.46,0,28.93-.08,43.39.07,2.84.03,3.58-.8,3.5-3.57-.2-6.98-.16-13.97-.01-20.95.05-2.34-.69-2.93-2.96-2.93-29.05.07-58.11.07-87.16,0-2.41,0-3.25.67-3.2,3.14.14,6.86.2,13.72-.02,20.57-.1,3.02.93,3.75,3.81,3.72,14.21-.13,28.43-.06,42.64-.06Z"/>
      <path class="cls-1" d="M318.43,347.85c-3.37,0-6.74.1-10.1-.02-7.88-.29-13.82-6.27-14.01-14.18-.12-4.86-.06-9.73-.02-14.59.08-8.39,5.27-14.37,13.62-14.87,7.08-.42,14.23-.43,21.3.02,8.17.52,13.35,6.43,13.51,14.62.09,4.74.1,9.48,0,14.21-.18,8.76-6.2,14.68-14.95,14.8-3.12.04-6.23,0-9.35,0ZM318.43,336.01c2.87,0,5.74-.08,8.6.02,2.62.1,3.98-.86,3.93-3.65-.08-4.36-.06-8.73,0-13.09.03-2.35-1.12-3.49-3.38-3.5-5.98-.03-11.97-.02-17.95-.01-2.48,0-3.57,1.22-3.51,3.73.09,4.24.1,8.48,0,12.71-.07,2.69.96,3.92,3.72,3.81,2.86-.12,5.73-.03,8.6-.03Z"/>
      <path class="cls-1" d="M249.06,347.85c-3.24,0-6.48.08-9.71-.01-7.95-.23-13.85-6.07-14.04-13.98-.12-4.98-.09-9.96-.03-14.94.11-8.68,5.31-14.38,13.96-14.79,6.71-.32,13.45-.33,20.16.01,8.61.44,13.81,6.21,13.89,14.87.05,4.98.08,9.96-.03,14.94-.17,7.72-5.98,13.58-13.75,13.88-3.48.13-6.97.02-10.46.03ZM249.37,336.01c2.99,0,5.99-.06,8.98.02,2.25.06,3.19-1.04,3.2-3.16,0-4.62,0-9.23,0-13.85,0-2.16-1.05-3.23-3.19-3.24-6.11,0-12.22-.01-18.34.02-1.97,0-3,1.08-3.02,3.03-.03,4.74-.04,9.48,0,14.22.02,2.19,1.23,3.05,3.38,2.98,2.99-.09,5.99-.02,8.98-.02Z"/>
      <path class="cls-1" d="M249.24,255.7c3.61,0,7.23-.16,10.83.03,7.48.39,13.02,6.08,13.19,13.54.12,5.47.13,10.95,0,16.43-.18,7.49-6.11,13.38-13.65,13.51-6.84.12-13.69.11-20.54,0-7.58-.12-13.51-5.9-13.73-13.42-.16-5.6-.16-11.2,0-16.8.22-7.28,5.75-12.86,13.07-13.26,3.6-.19,7.22-.03,10.83-.04ZM249.23,287.44c2.99,0,5.98-.07,8.97.02,2.41.07,3.38-1.04,3.36-3.37-.04-4.49-.04-8.97,0-13.46.02-2.38-1.18-3.39-3.44-3.39-5.86,0-11.71.01-17.57,0-2.5,0-3.62,1.19-3.59,3.67.04,4.36.04,8.72,0,13.08-.02,2.53,1.14,3.58,3.67,3.48,2.86-.12,5.73-.03,8.6-.03Z"/>
      <path class="cls-1" d="M318.43,255.66c3.37,0,6.73-.09,10.1.02,8.06.26,13.85,5.87,14.17,13.93.21,5.23.21,10.48,0,15.7-.32,8.13-6.42,13.86-14.59,13.92-6.48.05-12.97.07-19.45,0-8.11-.09-14.16-6.05-14.34-14.15-.11-5.11-.12-10.22,0-15.33.2-7.98,6-13.78,14.01-14.07,3.36-.12,6.73-.02,10.1-.02ZM318.33,287.44c2.99,0,5.98-.06,8.97.02,2.47.06,3.7-.89,3.65-3.5-.09-4.36-.09-8.73,0-13.09.05-2.6-1.27-3.61-3.65-3.62-5.86-.02-11.72-.02-17.58,0-2.38,0-3.69,1.01-3.63,3.62.1,4.36.11,8.73,0,13.09-.06,2.63,1.15,3.56,3.62,3.5,2.86-.08,5.73-.02,8.6-.02Z"/>
    </g>
  </g>
</svg>