<?xml version="1.0" encoding="UTF-8"?>
<svg id="Layer_2" xmlns="http://www.w3.org/2000/svg" viewBox="0 0 497.8 497.37">
  <defs>
    <style>
      .cls-1 {
        fill: #fff;
      }
    </style>
  </defs>
  <g id="Layer_1-2" data-name="Layer_1">
    <g>
      <path class="cls-1" d="M.55,497.27c0-.65-.03-1.3.02-1.94.36-4.62-2.05-10.67.98-13.49,2.98-2.77,8.96-.77,13.61-.79,17.64-.09,35.28-.15,52.92.05,3.73.04,4.53-1.12,4.52-4.65-.12-39.65-.13-79.3.01-118.95.01-3.76-1.18-4.57-4.68-4.56-11.24.06-11.24-.07-11.24-11.37,0-10.84.14-21.69-.08-32.53-.07-3.5,1.11-4.37,4.42-4.27,7.44.22,14.91-.24,22.33.18,4.7.27,5.65-1.48,5.51-5.75-.28-8.4-.21-16.83.03-25.24.39-13.72,8.38-24.88,21.46-29.29,10.08-3.4,20.39-6.14,30.65-8.94,2.83-.77,3.75-2,3.9-4.95.31-6.34-.8-11.56-5.47-16.61-7.49-8.09-10.65-18.39-10.6-29.42.05-10.77-.78-21.53,2.73-32.18,10.06-30.49,50.07-42.32,74.9-21.95,12.13,9.96,18.51,22.61,18.55,38.29.02,8.55.75,17.15-1.02,25.64-1.83,8.77-5.89,16.35-11.99,22.88-2.25,2.41-3.98,13.51-2.62,16.44.78,1.67,2.47,1.43,3.75,1.81,9.12,2.72,18.29,5.27,27.44,7.91,13.36,3.86,21.55,12.54,24.01,26.3.42,2.34,1.48,2.88,3.55,2.87,13.11-.04,26.22-.03,39.33,0,1.53,0,2.8-.33,3.92-1.47,13.46-13.55,26.94-27.07,40.4-40.6.2-.2.22-.59.43-1.19-6.74-2.8-12.82-6.7-17.83-12.07-7.52-8.07-12.06-17.59-12.79-28.63-1.01-15.36-1.64-30.58,6.43-44.83,15.59-27.5,56.66-31.63,77.17-7.54,7.37,8.66,11.68,18.49,12.26,29.88.44,8.57.69,17.18-.51,25.69-1.37,9.7-5.69,18.11-12.36,25.31-1.05,1.13-3.26,2.13-.41,3.96,10.49,6.74,13.81,16.88,13.56,28.8-.16,7.6-.75,6.4,6.38,6.47,7.28.07,14.57.15,21.85-.04,3.02-.08,3.87,1,3.86,3.9-.08,33.02.29,66.04-.16,99.05-.35,25.14-12.15,43.33-35.5,53.49-2.64,1.15-5.46,2.11-8.3,2.54-3.08.47-3.55,2.01-3.28,4.67,1.98,19.13,3.9,38.27,5.76,57.42.22,2.31.86,3.51,3.45,3.49,28.64-.14,57.28-.19,85.92-.27,0,4.86-.1,9.71.05,14.56.05,1.69-.3,2.28-2,1.97-.78-.14-1.61-.02-2.42-.02H.55ZM192.93,353.01c-33.17,0-66.33.05-99.5-.07-3.49-.01-4.73.75-4.68,4.53.15,11.52-.03,11.52,12.14,11.52s12.49,0,12.21,12.44c-.07,3.19-1.33,3.78-4.05,3.72-5.5-.12-11,.05-16.5-.06-2.52-.05-3.77.47-3.76,3.43.1,29.77.09,59.54,0,89.3,0,2.67,1.05,3.28,3.44,3.21,4.04-.13,8.1-.19,12.13.02,2.67.14,4-.87,5.13-3.25,4.1-8.59,8.5-17.04,12.68-25.59,1.09-2.23,2.33-3.36,5.11-3.36,43.84.11,87.69.09,131.53.02,2.48,0,3.8.87,4.83,3.05,2.7,5.69,6.43,11.02,8.25,16.96,3.23,10.53,9.73,13.76,20.16,12.31,3.85-.53,5.12-1.15,5.1-5.21-.17-28.31-.24-56.62.04-84.93.05-5.12-1.54-6.05-6.25-6.03-50.48.16-100.95.1-151.43.1-10.8,0-10.57,0-10.88-10.89-.12-4.27.99-5.36,5.3-5.35,50.8.16,101.6.11,152.4.11,10.81,0,10.62,0,10.82-11,.08-4.16-1.31-5.08-5.24-5.06-33,.14-66.01.08-99.01.08ZM161.26,304.83c17.64,0,35.28-.05,52.91.04,3.1.02,4.05-.36,3.32-4.03-2.37-11.98,5.04-23.42,16.76-27.06,3.65-1.13,7.35-1.02,11.04-1.01,2.83.01,3.4-1.04,2.43-3.53-2.03-5.22-5.83-8.43-11.1-9.96-9.3-2.69-18.66-5.17-27.9-8.04-3.06-.95-5-.6-7.12,1.91-3.35,3.98-7.52,7.07-12.39,9.1-12.97,5.39-26.36,2.13-36.97-9.08-1.6-1.69-2.9-3.23-5.71-2.38-9.72,2.95-19.56,5.54-29.26,8.54-8.48,2.63-12.16,7.95-12.36,17.5-.16,7.76.18,15.54-.13,23.3-.16,4,1.35,4.8,5.01,4.76,17.15-.17,34.3-.08,51.45-.08ZM401.54,247.53c-2.24,6.83-6.99,11.6-11.81,16.39-15.82,15.73-31.47,31.64-47.43,47.24-3.49,3.42-5.22,6.74-4.97,11.73.43,8.71.02,17.46.18,26.19.05,2.86-.7,4.17-3.76,3.97-3.06-.2-6.14-.04-9.21-.04-11.37,0-11.16,0-11.38,11.37-.08,4.1,1.44,4.71,5.01,4.68,18.43-.15,36.87-.06,55.3-.07,18.49-.01,28.07-9.59,28.07-28.1.01-29.59,0-59.18,0-88.77,0-1.53,0-3.06,0-4.59ZM145.16,175.37c0,4.19-.09,7.27.01,10.33.53,16.22,12.07,28.22,29.39,30.59,13.75,1.89,28.71-8.18,32.81-22.52,2.7-9.46,1.94-19.21,1.12-28.87-1.05-12.37-9.82-23-21.97-26.83-11.87-3.74-25.58.22-33.52,9.34-7.38,8.48-8.61,18.47-7.85,27.95ZM337.49,175.08c0,4.22-.12,7.3.02,10.36.74,16.82,12.63,29.42,30.23,30.84,14.59,1.18,28.6-8.23,32.42-23.65,2.35-9.49,2.09-19.28.61-28.89-2.07-13.43-9.9-22.28-22.97-25.85-12.42-3.39-23.3-.09-32.1,9.39-7.63,8.22-8.89,18.34-8.21,27.81ZM196.87,336.91c38.03,0,76.06,0,114.1,0,10.17,0,9.87-.01,10.29-10.04.21-5.02-1.32-6.09-6.16-6.08-77.2.16-154.39.11-231.59.11-10.84,0-10.65,0-10.84,11.06-.07,4.16,1.33,5.05,5.24,5.04,39.65-.13,79.3-.08,118.95-.08ZM433.61,321.76c0-14.93,0-26.9,0-38.87,0-10.04,0-9.78-10.11-10.14-4.61-.16-5.92,1-5.93,5.78-.06,23.77.92,47.55-.49,71.31-1.02,17.16-17.69,33.63-34.98,34.73-19.23,1.22-38.48.31-57.72.53-11.18.13-10.96.03-11.22,11.1-.1,4.25,1.38,4.99,5.23,4.95,17.95-.19,35.91,0,53.87-.12,9.04-.05,18.08.33,27.13-.68,16.29-1.83,31.7-17.13,33.44-33.55,1.7-15.98.18-32,.78-45.04ZM282.65,304.83c12.94,0,25.87-.1,38.81.07,3.2.04,5.41-1,7.61-3.22,17.08-17.22,34.27-34.34,51.4-51.5,1.14-1.14,2.31-2.3,3.21-3.62,1.98-2.91,2.15-6.04.43-9.15-1.83-3.3-4.7-4.65-8.46-4.44-3.41.19-5.53,2.42-7.69,4.58-15.8,15.76-31.66,31.46-47.29,47.38-2.88,2.93-5.77,3.97-9.77,3.94-21.83-.16-43.66-.09-65.49-.05-2.09,0-4.24.07-6.24.57-3.96.99-5.88,3.74-5.72,7.83.18,4.79,3.62,7.53,9.91,7.58,13.1.09,26.2.03,39.29.03ZM336.85,481c6.62,0,13.24-.1,19.86.05,2.68.06,3.8-.57,3.36-3.52-.59-3.98-.75-8.03-1.16-12.04-1.51-14.92-3.09-29.84-4.51-44.77-.25-2.62-1.13-3.57-3.83-3.54-11.3.13-22.61.1-33.91.02-2.39-.02-3.45.64-3.44,3.27.09,19.06.11,38.11-.02,57.17-.02,3,1.28,3.43,3.77,3.39,6.62-.11,13.24-.04,19.86-.04ZM259.96,481c-2.27-4.59-4.31-8.24-5.89-12.08-1.24-3.04-3.12-3.8-6.3-3.79-33.95.12-67.91.45-101.85-.17-9.14-.17-14.65,1.89-17.52,10.9-1.7,5.35-2.36,5.15,3.62,5.15,40.74,0,81.48,0,122.22,0h5.71ZM378.31,417.24c-1.46,0-2.92.11-4.36-.02-2.78-.26-3.65.81-3.35,3.62,1.74,16.39,3.23,32.8,5.01,49.18,1.22,11.18,1.37,11.01,12.57,11.07,3.55.02,4.28-1,3.92-4.39-1.89-17.99-3.87-35.99-5.15-54.03-.49-6.89-4.7-5.36-8.64-5.44ZM192.89,234.49c.61-3.23-.03-4.81-4.46-3.47-8,2.41-16.21,2.07-24.22-.26-2.78-.81-3.29-.05-3.35,2.54-.15,5.85,3.66,11.2,10.38,14.11,8.95,3.87,21.6-3.41,21.66-12.92Z"/>
      <path class="cls-1" d="M249.16,129.43c0-14.37,0-27.74,0-41.1q0-7.84-7.93-7.84c-14.56,0-29.13-.1-43.69.07-3.44.04-4.78-.64-4.75-4.48.18-23.95.17-47.9,0-71.85-.02-3.53,1.14-4.21,4.41-4.21C258.54.12,319.88.14,381.21,0c3.87,0,4.47,1.33,4.45,4.72-.12,23.63-.17,47.25.03,70.88.04,4.25-1.47,5-5.31,4.98-22.49-.17-44.99,0-67.48-.16-3.49-.02-6.09.99-8.71,3.2-16.33,13.76-32.76,27.4-49.17,41.07-1.68,1.4-3.41,2.76-5.87,4.76ZM265.41,94.88c11.92-9.9,22.89-18.9,33.7-28.09,2.26-1.92,4.48-2.66,7.4-2.64,19.57.11,39.14-.03,58.71.13,3.43.03,4.36-.98,4.31-4.36-.19-13.1-.19-26.2,0-39.3.05-3.43-1.04-4.34-4.38-4.33-50.63.09-101.25.09-151.88,0-3.12,0-4.16.82-4.12,4.04.17,12.94.22,25.88-.02,38.82-.08,3.92.77,5.23,4.96,5.16,15.68-.27,31.38,0,47.07-.18,3.44-.04,4.41,1.01,4.32,4.37-.22,8.38-.07,16.76-.07,26.39Z"/>
      <path class="cls-1" d="M288.94,48.42c-9.37,0-18.75-.1-28.12.06-2.95.05-3.83-.89-3.89-3.86-.25-12.48-.35-12.47,12.07-12.47,16,0,32,.08,48-.07,3.27-.03,4.44.73,4.45,4.23.04,12.11.18,12.11-11.67,12.11-6.95,0-13.9,0-20.85,0Z"/>
      <path class="cls-1" d="M233.52,32.14q7.77,0,7.77,8,0,8.27-8.09,8.27-8.24,0-8.24-8.12t8.57-8.16Z"/>
      <path class="cls-1" d="M345.49,32.14c7.99,0,8.05,0,7.97,8.78-.09,9.04,1.16,7.36-9.39,7.49-6.69.08-6.69.01-6.68-10.1q0-6.16,8.1-6.16Z"/>
    </g>
  </g>
</svg>