<?xml version="1.0" encoding="UTF-8"?>
<svg id="Layer_2" xmlns="http://www.w3.org/2000/svg" viewBox="0 0 164.45 164.45">
  <defs>
    <style>
      .cls-1 {
        fill: #fff;
      }
    </style>
  </defs>
  <g id="Layer_1-2" data-name="Layer_1">
    <circle class="cls-1" cx="82.22" cy="82.22" r="82.22"/>
    <g id="dcTZAu">
      <g>
        <path d="M38.4,89.58c.17-.59.33-1.19.51-1.78,1.49-4.81,5.95-8.15,10.96-8.13,2.25,0,4.51-.26,6.73.27,3.37.8,5.91,2.74,7.6,5.76.28.51.41.6.87.14,4.16-4.14,9.17-6.26,15.06-6.18,2.73.03,5.47-.19,8.19.31,4.25.79,7.88,2.72,10.94,5.76.48.47.63.56,1.03-.12,2.25-3.84,5.62-5.9,10.1-5.94,2.3-.02,4.62-.25,6.9.32,5.08,1.27,8.74,5.88,8.75,11.1.01,6.16,0,12.32,0,18.48,0,3.1-2.23,5.33-5.34,5.33-4.82,0-9.64.02-14.46-.02-.65,0-.93.15-1.07.8-.65,2.86-2.97,4.69-5.92,4.69-11.35,0-22.71,0-34.06,0-2.94,0-5.26-1.83-5.91-4.7-.14-.61-.37-.79-1-.79-4.82.03-9.64.02-14.46.02-2.71,0-4.35-1.17-5.26-3.75-.02-.07-.1-.12-.15-.18,0-7.13,0-14.26,0-21.4ZM82.19,115.26c5.56,0,11.12,0,16.68,0,1.04,0,1.33-.28,1.33-1.31,0-4.56.04-9.13,0-13.69-.07-6.84-4.52-12.83-11.04-14.77-3.87-1.15-7.89-1.03-11.79-.45-7.71,1.16-13.08,7.67-13.11,15.49-.02,4.42,0,8.84,0,13.26,0,1.25.22,1.47,1.51,1.47,5.48,0,10.95,0,16.43,0ZM120.91,100.1c0-2.94.03-5.87,0-8.81-.04-3.28-2.23-5.85-5.44-6.37-1.84-.3-3.71-.23-5.54-.08-4.01.32-7.02,4.07-5.65,8.86.58,2.04,1.03,4.08,1.05,6.2.02,3.05.02,6.1,0,9.15,0,.51.06.75.68.75,4.7-.03,9.41-.03,14.11,0,.72,0,.83-.26.82-.89-.03-2.94-.01-5.87-.01-8.81ZM43.54,99.99c0,2.99.02,5.99-.02,8.98,0,.7.21.84.86.83,4.65-.03,9.29-.03,13.94,0,.62,0,.83-.12.82-.79-.05-2.39-.03-4.79-.04-7.18,0-2.11.06-4.22.56-6.28.35-1.45.96-2.82.86-4.4-.2-3.17-2.32-5.69-5.44-6.23-1.56-.27-3.13-.12-4.69-.12-4.06,0-6.82,2.77-6.83,6.81,0,2.79,0,5.59,0,8.38Z"/>
        <path d="M67.33,58.89c0-8.22,6.67-14.84,14.94-14.84,8.22,0,14.84,6.67,14.84,14.94,0,8.22-6.68,14.85-14.94,14.84-8.22,0-14.84-6.68-14.84-14.94ZM72.47,58.98c.03,5.33,4.48,9.74,9.79,9.72,5.32-.02,9.74-4.48,9.72-9.8-.02-5.33-4.48-9.75-9.8-9.72-5.34.03-9.75,4.47-9.72,9.79Z"/>
        <path d="M52.13,55.01c5.19,0,9.38,4.22,9.37,9.43,0,5.23-4.23,9.42-9.49,9.4-5.17-.02-9.34-4.25-9.33-9.47.01-5.18,4.23-9.36,9.45-9.35ZM56.37,64.49c.05-2.29-1.84-4.27-4.16-4.35-2.31-.08-4.34,1.86-4.39,4.2-.05,2.31,1.92,4.33,4.25,4.35,2.29.02,4.26-1.9,4.31-4.2Z"/>
        <path d="M121.76,64.46c0,5.19-4.22,9.38-9.43,9.37-5.23,0-9.41-4.23-9.39-9.5.02-5.17,4.25-9.34,9.47-9.33,5.19.01,9.36,4.23,9.35,9.45ZM116.63,64.4c-.01-2.3-1.96-4.24-4.26-4.26-2.33-.02-4.31,1.97-4.3,4.3.01,2.3,1.96,4.24,4.26,4.26,2.32.02,4.31-1.97,4.3-4.3Z"/>
      </g>
    </g>
  </g>
</svg>