<?xml version="1.0" encoding="UTF-8"?>
<svg id="Layer_2" data-name="Layer 2" xmlns="http://www.w3.org/2000/svg" viewBox="0 0 26.06 34.75">
  <defs>
    <style>
      .cls-1 {
        fill: #fdb817;
      }
    </style>
  </defs>
  <g id="Layer_1-2" data-name="Layer 1">
    <g id="gIpd0L">
      <g>
        <path class="cls-1" d="M23.62,34.75H2.45c-1.3-.27-2.3-1.27-2.44-2.61V2.68C.11,1.27,1.21.16,2.62,0h20.7c1.47.07,2.68,1.27,2.75,2.74v29.38c-.09,1.23-1.23,2.46-2.45,2.61ZM2.91,1.45c-1,.11-1.41.66-1.48,1.64v28.57c.08,1.09.58,1.58,1.66,1.66,6.84-.07,13.71.13,20.53-.1.72-.27.96-.83,1.02-1.56V3.09c-.08-1.09-.58-1.58-1.66-1.66l-20.07.02Z"/>
        <path class="cls-1" d="M3.51,3.62l18.85-.02c.38,0,.74.26.78.65l-.04,10.55c-.13.26-.38.41-.67.41H3.63c-.35,0-.66-.23-.71-.58l.05-10.61c.13-.2.3-.37.54-.41ZM21.72,5.09H4.35v8.69h17.37V5.09Z"/>
        <path class="cls-1" d="M17.83,18.14l4.73-.02c.25,0,.44.19.54.41l.03,11.98c-.06.43-.37.61-.78.65-1.35.13-2.9-.1-4.28,0-.25-.03-.55-.19-.65-.44l-.06-11.95c.03-.29.19-.51.46-.63ZM21.72,19.55h-2.92v10.11h2.92v-10.11Z"/>
        <path class="cls-1" d="M10.77,25.33c.77-.13,3.58-.11,4.39-.02.5.06.72.28.78.78.11.98.09,3.21,0,4.21-.05.53-.24.78-.78.85-.98.11-3.21.09-4.21,0-.53-.05-.78-.24-.85-.78-.1-.93-.1-3.35,0-4.28.05-.42.22-.69.66-.76ZM14.46,26.81h-2.85v2.85h2.85v-2.85Z"/>
        <path class="cls-1" d="M10.64,18.14l4.89.04c.31.18.39.38.43.73.1,1.02.1,3.2,0,4.21-.05.51-.28.73-.78.78-1.05.1-3.23.1-4.28,0-.47-.04-.69-.23-.78-.71.12-1.38-.15-3,0-4.34.04-.34.2-.57.52-.7ZM14.46,19.55h-2.85v2.92h2.85v-2.92Z"/>
        <path class="cls-1" d="M3.51,25.33c1.4.1,3.1-.18,4.46-.02.47.06.67.33.71.78.1,1.05.1,3.23,0,4.28-.04.47-.23.69-.71.78-1.38-.1-2.92.13-4.28,0-.4-.04-.73-.21-.78-.65-.16-1.4.13-3.11,0-4.55.02-.3.29-.57.59-.63ZM7.26,26.81h-2.92v2.85h2.92v-2.85Z"/>
        <path class="cls-1" d="M3.38,18.14l4.74-.02c.33.04.54.33.58.65-.1,1.42.13,3.02,0,4.42-.03.37-.26.66-.65.71-1.42-.11-3.02.14-4.42,0-.36-.03-.64-.19-.71-.58.13-1.46-.17-3.19,0-4.62.03-.28.2-.47.46-.56ZM7.26,19.55h-2.92v2.92h2.82l.1-.1v-2.82Z"/>
      </g>
    </g>
  </g>
</svg>