<?xml version="1.0" encoding="UTF-8"?>
<svg id="Layer_2" xmlns="http://www.w3.org/2000/svg" viewBox="0 0 164.45 164.45">
  <defs>
    <style>
      .cls-1 {
        fill: #fff;
      }
    </style>
  </defs>
  <g id="Layer_1-2" data-name="Layer_1">
    <circle class="cls-1" cx="82.22" cy="82.22" r="82.22"/>
    <g id="htU4gB">
      <path d="M131.29,76.99c-.79,2.43-2.65,3.8-4.83,4.86-2.34,1.14-4.57.97-6.65-.59-.45-.34-.66-.41-1.03.08-1.88,2.42-3.79,4.81-5.7,7.21-.2.26-.33.51-.38.85-.29,2.18-1.45,3.78-3.41,4.76-.47.23-.65.41-.52.99,1.05,4.66-3.01,8.66-7.64,7.54-.54-.13-.8-.07-1.06.5-1.14,2.41-3.07,3.69-5.77,3.67-.63,0-.91.12-1.13.78-1.44,4.37-6.72,5.76-10.18,2.72-.6-.53-1.21-1.05-1.76-1.62-.35-.36-.54-.27-.81.07-.64.8-1.31,1.56-1.96,2.35-1.65,2-3.79,2.84-6.3,2.33-2.56-.52-4.21-2.15-4.86-4.72-.11-.44-.31-.59-.77-.64-3.07-.32-5.03-1.98-5.81-4.97-.1-.37-.24-.49-.63-.52-3.14-.29-5.06-1.89-5.92-4.96-.12-.44-.29-.56-.69-.56-3.51-.02-6.82-3.55-5.83-7.74.11-.48,0-.77-.26-1.12-1.37-1.8-2.75-3.6-4.09-5.43-.31-.43-.61-.54-1.12-.4-.94.24-1.91.23-2.83-.07-1.62-.54-3.09-1.37-4.36-2.51-2-1.8-2.31-5.16-1.07-7.32,3.59-6.24,7.17-12.5,10.82-18.71,1.73-2.93,5.25-3.81,8.26-2.19.67.36,1.33.75,1.98,1.16,1.11.71,1.9,1.69,2.38,2.92.48,1.24.5,1.31,1.69.81,4.49-1.9,9.11-1.83,13.82-1.08,2.58.42,5.18.66,7.78,1,.31.04.56-.07.82-.19,2.44-1.11,5-1.73,7.68-1.71,3.35.03,6.7-.23,10.04.23,2.01.28,3.86,1.04,5.73,1.79.59.23,1.18.47,1.87.75.35-3.11,2.54-4.58,5.01-5.81,2.98-1.48,6.37-.5,8.12,2.45,1.79,3.01,3.52,6.07,5.27,9.1,1.77,3.06,3.55,6.12,5.31,9.19.31.54.56,1.13.84,1.69v3.07ZM74.91,60.09l-.03-.21c-1.13-.15-2.26-.3-3.39-.45-2.59-.34-5.19-.75-7.79-.07-2.34.61-4.58,1.55-6.88,2.3-.35.11-.47.41-.63.68-3.23,5.6-6.46,11.21-9.71,16.81-.25.43-.31.74.04,1.18,1.11,1.4,2.18,2.83,3.23,4.28.36.5.58.53.97.03.98-1.22,1.98-2.42,3.02-3.59,3.12-3.5,8.33-2.85,10.45,1.32.26.51.46.59,1.01.47,4-.83,7.73,2.29,7.59,6.34-.02.55.07.74.64.91,2.87.84,4.66,3.35,4.53,6.33-.03.58.2.66.64.79,3.13.98,4.85,3.68,4.44,6.9-.05.4-.05.73.3,1.03.78.66,1.5,1.38,2.28,2.05,1.06.91,2.3.89,3.17-.01.87-.9.81-2.26-.19-3.24-1.05-1.03-2.13-2.02-3.19-3.04-1.11-1.07-1.25-2.27-.39-3.19.85-.92,2.1-.85,3.21.18,1.4,1.31,2.79,2.63,4.18,3.94,1.17,1.11,2.54,1.17,3.45.17.9-.99.74-2.28-.41-3.37-1.32-1.25-2.65-2.49-3.98-3.74-1.35-1.27-1.59-2.48-.7-3.46.91-1,2.17-.83,3.56.48,2.24,2.09,4.46,4.2,6.72,6.27,1.01.92,2.3.86,3.17-.05.87-.92.82-2.19-.14-3.17-.42-.43-.88-.83-1.33-1.24-2.01-1.87-4.02-3.74-6.03-5.61-.71-.66-.92-1.47-.6-2.35.28-.77.88-1.22,1.74-1.29.77-.06,1.34.3,1.87.8,1.65,1.55,3.3,3.1,4.97,4.64,1.17,1.07,2.46,1.09,3.37.08.91-1.01.74-2.32-.45-3.35-5.53-4.77-11.08-9.53-16.6-14.32-.47-.41-.84-.48-1.43-.23-4.06,1.68-8.14,3.31-12.2,4.97-1.74.71-3.5.94-5.32.38-3.17-.96-5.14-3.1-5.65-6.34-.52-3.27.69-5.96,3.48-7.84,1.64-1.1,3.33-2.11,5-3.16ZM92.66,58.62c-1.02,0-2.04-.01-3.06,0-2.35.03-4.66.38-6.75,1.51-3.79,2.04-7.36,4.45-10.97,6.78-1.15.74-1.6,1.98-1.43,3.35.18,1.48.98,2.54,2.39,3.09,1.03.4,2.05.28,3.07-.14,4.54-1.86,9.08-3.69,13.62-5.55.95-.39,1.84-.49,2.68.23,6.14,5.29,12.29,10.57,18.41,15.89.45.39.62.45.99-.03,1.59-2.04,3.2-4.06,4.83-6.06.35-.43.31-.74.05-1.18-2.62-4.52-5.23-9.05-7.84-13.58-.2-.34-.44-.58-.83-.74-2.22-.87-4.43-1.77-6.66-2.64-2.75-1.07-5.63-.95-8.5-.93ZM53.68,57.95c-.07-.7-.32-1.3-.93-1.69-.35-.22-.71-.43-1.07-.63-1.93-1.12-2.78-.9-3.88,1-3.17,5.49-6.33,10.98-9.5,16.47-1.67,2.89-1.51,3.44,1.45,5.01,1.29.68,2.33.41,3.07-.87,3.48-6,6.95-12.02,10.43-18.02.23-.39.38-.8.43-1.26ZM114.42,54.94c-.92.07-1.69.74-2.53,1.24-1.07.63-1.33,1.68-.75,2.8.36.71.78,1.38,1.18,2.07,3.09,5.35,6.17,10.7,9.26,16.04.86,1.49,1.84,1.74,3.34.89.42-.23.84-.46,1.24-.72,1.11-.71,1.41-1.71.75-2.87-3.51-6.13-7.05-12.25-10.58-18.37-.39-.68-.99-1.06-1.92-1.09ZM60.39,98.49c.57.03,1.11-.22,1.54-.69.37-.4.71-.82,1.05-1.23,1.7-2.02,3.41-4.04,5.08-6.08.85-1.04.77-2.25-.12-3.09-.86-.81-2.21-.88-3.01.03-2.2,2.52-4.33,5.09-6.45,7.67-.55.67-.54,1.49-.12,2.25.41.76,1.07,1.15,2.03,1.14ZM51.57,90.68c0,1.1.46,1.77,1.32,2.16.91.41,1.85.21,2.58-.64,1.6-1.86,3.18-3.73,4.72-5.63.88-1.08.77-2.35-.18-3.16-.96-.81-2.31-.69-3.22.36-1.58,1.83-3.11,3.7-4.66,5.56-.36.43-.59.9-.57,1.34ZM66.71,104.02c.79,0,1.35-.26,1.8-.75.32-.35.62-.73.93-1.09,1.29-1.54,2.6-3.07,3.86-4.63.8-1,.68-2.19-.2-3.01-.83-.77-2.19-.87-2.94-.01-1.78,2-3.48,4.07-5.17,6.15-.55.68-.49,1.49-.06,2.25.42.72,1.08,1.05,1.78,1.11ZM76.77,101.09c-.61-.02-1.14.18-1.54.64-1.23,1.42-2.47,2.83-3.63,4.31-.74.94-.54,2.15.33,2.92.86.75,2.15.81,2.94-.05,1.31-1.43,2.55-2.93,3.76-4.44.54-.68.52-1.5.1-2.25-.42-.75-1.08-1.15-1.96-1.12Z"/>
    </g>
  </g>
</svg>