<?xml version="1.0" encoding="UTF-8"?>
<svg id="Layer_2" xmlns="http://www.w3.org/2000/svg" viewBox="0 0 408.83 408.84">
  <defs>
    <style>
      .cls-1 {
        fill: #fff;
      }
    </style>
  </defs>
  <g id="Layer_1-2" data-name="Layer_1">
    <g>
      <path class="cls-1" d="M19.19,408.84c-1.39-1.38-3.4-1.28-5.04-2.1-9.04-4.52-13.94-11.77-14.06-21.87-.17-14.37-.05-28.74-.05-43.11,0-105.38,0-210.76,0-316.15C.05,12.62,7.09,3.35,19.08.59c1.92-.44,3.95-.52,5.94-.52C101.79.05,178.57.07,255.34,0c4.18,0,7.35,1.42,10.25,4.33,22.91,23,45.87,45.96,68.87,68.87,2.81,2.8,4.18,5.84,4.15,9.89-.13,23.42-.04,46.84-.08,70.25,0,6.07-3.76,9.67-9.07,8.92-4.44-.63-6.83-3.78-6.84-9.2-.02-19.69.01-39.39-.02-59.08-.01-6.01.8-5.22-5.32-5.24-13.7-.04-27.42-.37-41.11.08-16.03.53-26.91-12.15-26.34-26.49.57-14.21.03-28.47.2-42.71.04-3.03-.83-3.71-3.77-3.71-73.31.08-146.63.06-219.94.08-7.15,0-10.32,3.1-10.32,10.15-.02,118.82-.02,237.64,0,356.46,0,6.98,3.08,10.25,9.8,10.26,70.79.03,141.57.02,212.36,0,.52,0,1.04-.09,1.42-.13,0-31.3,0-62.49,0-93.68,0-31.14,0-62.27,0-93.41,0-14.81,8.7-23.58,23.49-23.59,40.45-.03,80.9-.01,121.35,0,12.99,0,18.9,4.08,23.82,16.35.08.2.39.3.59.45v193.22c-1.65,2.49-2.34,5.44-4.1,7.91-3.2,4.5-7.93,6.64-12.66,8.85H19.19ZM255.52,295.49c0,29.54,0,59.07,0,88.61,0,7,1.75,8.78,8.66,8.78,39.91,0,79.83,0,119.74,0,7.25,0,8.95-1.69,8.95-8.89,0-59.07,0-118.15,0-177.22,0-7.02-1.71-8.74-8.66-8.74-39.91,0-79.83,0-119.74,0-7.29,0-8.95,1.64-8.95,8.86,0,29.54,0,59.07,0,88.61ZM309.38,72.66c-14.51-14.51-29.08-29.07-43.45-43.45,0,11.31-.15,23.23.07,35.14.09,4.82,3.08,8.12,7.61,8.22,12.15.26,24.31.09,35.77.09Z"/>
      <path class="cls-1" d="M109.74,179.46c-5.72.09-9.69-5.49-7.51-11.17,2.93-7.68,6.31-15.18,9.52-22.75,6.11-14.41,12.2-28.83,18.36-43.22,2.23-5.21,6.29-7.23,10.73-5.58,2.56.95,4.04,2.95,5.06,5.34,9.17,21.61,18.36,43.22,27.47,64.86,2.24,5.33.68,9.95-3.69,11.78-4.5,1.88-8.6-.16-11.07-5.5-.06-.12-.16-.23-.18-.36-1.57-9.21-7.36-11.45-15.91-10.32-5.1.67-10.38.45-15.54.02-4.08-.34-6.06,1.19-7.17,4.91-.76,2.52-1.98,4.92-3.11,7.31-1.37,2.9-3.86,4.28-6.95,4.68ZM138.02,124.87c-2.99,7.05-5.59,13.2-8.21,19.35-.38.89-.86,2,.65,2.03,5.42.1,10.84.04,16.72.04-3.16-7.4-5.99-14-9.16-21.42Z"/>
      <path class="cls-1" d="M132.14,276.28c-26.06,0-52.11,0-78.17,0-1.33,0-2.67.07-3.98-.12-3.88-.56-6.72-3.83-6.8-7.68-.08-4.01,2.82-7.46,6.86-8.02,1.31-.18,2.65-.11,3.98-.11,52.11,0,104.23,0,156.34,0,1.33,0,2.67-.07,3.98.12,3.87.56,6.72,3.83,6.8,7.68.08,4.01-2.82,7.46-6.86,8.02-1.31.18-2.65.11-3.98.11-26.06,0-52.11,0-78.17,0Z"/>
      <path class="cls-1" d="M132.45,365.71c-25.79,0-51.58,0-77.38,0-1.33,0-2.67.07-3.98-.09-4.1-.48-7.06-3.78-7.1-7.8-.04-4.03,2.87-7.4,6.94-7.94,1.05-.14,2.12-.1,3.19-.1,52.25,0,104.5,0,156.74,0,1.06,0,2.14-.05,3.19.08,4.08.49,7.07,3.81,7.1,7.81.04,4.01-2.9,7.42-6.95,7.94-1.31.17-2.65.1-3.98.1-25.92,0-51.85,0-77.77,0Z"/>
      <path class="cls-1" d="M211.09,122.48c4.57-7.18,8.83-13.91,13.13-20.62.79-1.23,1.6-2.47,2.59-3.52,2.62-2.79,6.66-3.36,9.83-1.52,3.07,1.79,4.63,5.81,3.42,9.35-.51,1.49-1.36,2.88-2.2,4.22-4.82,7.65-9.55,15.35-14.6,22.84-2.04,3.02-2.34,5.23-.13,8.44,5.35,7.77,10.19,15.88,15.27,23.83,1.72,2.69,2.73,5.52,1.58,8.66-1.09,2.99-3.39,4.81-6.51,5.21-3.35.44-5.98-1.09-7.77-3.86-3.97-6.13-7.85-12.33-11.77-18.5-.84-1.32-1.74-2.61-2.88-4.3-4.8,7.56-9.42,14.83-14.04,22.1-2.1,3.3-4.91,5.31-8.98,4.4-5.85-1.3-8.06-7.3-4.62-12.94,4.42-7.26,8.66-14.7,13.76-21.47,3.99-5.29,3.97-9.27,0-14.56-5.17-6.88-9.43-14.46-13.99-21.8-1.9-3.06-2.14-6.33.02-9.38,1.95-2.75,4.82-3.71,8.08-3.13,2.98.53,4.73,2.72,6.26,5.14,4.39,6.96,8.81,13.9,13.57,21.4Z"/>
      <path class="cls-1" d="M150.12,215.63c20.6,0,41.2-.01,61.8.01,4.93,0,8.13,2.25,9.05,6.16,1.05,4.47-2,8.97-6.63,9.65-1.3.19-2.65.12-3.98.12-40.14,0-80.28,0-120.42,0-1.33,0-2.67.07-3.98-.12-4.04-.56-6.93-4.02-6.85-8.03.08-3.85,2.93-7.11,6.81-7.66,1.31-.19,2.65-.12,3.98-.12,20.07,0,40.14,0,60.21,0Z"/>
      <path class="cls-1" d="M150.19,320.99c-20.47,0-40.94-.02-61.41.02-2.61,0-5.08-.26-7.04-2.12-2.31-2.18-3.24-4.9-2.33-7.98.94-3.18,3.16-5.17,6.48-5.74,1.04-.18,2.12-.12,3.18-.12,40.67,0,81.34,0,122.01,0,.66,0,1.33-.02,1.99.02,4.8.26,8.15,3.63,8.07,8.1-.08,4.31-3.35,7.63-7.96,7.78-4.51.15-9.04.04-13.56.05-16.48,0-32.96,0-49.44,0Z"/>
      <path class="cls-1" d="M64.45,142.64c0-9.18-.07-18.36.05-27.53.03-2.53-.62-3.6-3.35-3.4-3.17.23-6.39.17-9.57.01-5.1-.25-8.52-3.71-8.39-8.27.13-4.47,3.39-7.64,8.46-7.68,13.83-.11,27.67-.11,41.5,0,5.24.04,8.64,3.37,8.62,7.94-.03,4.58-3.46,7.82-8.66,8.03-2.79.11-5.61.25-8.37-.03-3.27-.33-4.26.68-4.23,4.09.18,17.56.09,35.11.07,52.67,0,1.45-.05,2.94-.36,4.35-.95,4.2-4.43,6.87-8.27,6.53-4.05-.36-7.19-3.25-7.28-7.58-.21-9.7-.07-19.41-.07-29.12-.05,0-.09,0-.14,0Z"/>
      <path class="cls-1" d="M59.87,223.48c.06,4.26-3.47,7.94-7.73,8.06-4.28.12-7.98-3.35-8.15-7.62-.17-4.46,3.46-8.24,7.91-8.26,4.27-.01,7.9,3.56,7.97,7.82Z"/>
      <path class="cls-1" d="M59.87,313.04c0,4.27-3.58,7.88-7.86,7.93-4.46.05-8.13-3.68-8.02-8.15.11-4.29,3.74-7.79,8.04-7.73,4.27.06,7.84,3.68,7.84,7.95Z"/>
      <path class="cls-1" d="M324.26,213.99c14.22,0,28.44-.02,42.66,0,7.11.01,9.93,2.82,9.95,9.83.02,9.57.04,19.14,0,28.71-.03,6.24-3.06,9.34-9.27,9.35-28.97.03-57.95.04-86.92,0-6.01,0-9.11-3.12-9.14-9.07-.06-9.97-.06-19.94,0-29.9.04-5.75,3.11-8.87,8.87-8.89,14.62-.06,29.24-.02,43.86-.02ZM324.1,229.96c-11.16,0-22.33.06-33.49-.05-2.32-.02-3.39.43-3.21,3.04.23,3.31.15,6.65.02,9.96-.08,2.1.35,3.07,2.79,3.06,22.59-.09,45.19-.08,67.78-.01,2.17,0,3.12-.49,3-2.86-.18-3.31-.23-6.66.01-9.96.2-2.76-.93-3.26-3.41-3.24-11.16.11-22.33.05-33.49.05Z"/>
      <path class="cls-1" d="M284.38,284.31c1.72,0,3.45-.12,5.16.02,4.31.34,7.42,3.64,7.47,7.79.05,3.98-2.8,7.57-6.89,7.92-3.94.33-7.96.35-11.89-.04-4.06-.4-6.83-4.12-6.69-8.09.15-3.99,3.18-7.21,7.28-7.57,1.84-.16,3.7-.03,5.56-.03Z"/>
      <path class="cls-1" d="M324.43,284.32c1.72,0,3.45-.12,5.16.02,4.12.35,7.16,3.52,7.33,7.51.18,4.13-2.76,7.83-7.01,8.21-3.68.32-7.42.3-11.1.05-4.33-.3-7.36-3.79-7.34-7.93.02-4.33,3.22-7.6,7.8-7.87,1.71-.1,3.44-.02,5.16-.02,0,0,0,.02,0,.03Z"/>
      <path class="cls-1" d="M364.21,300.16c-1.85,0-3.72.16-5.55-.03-4.29-.46-7.32-3.9-7.26-8.02.06-4.15,3.17-7.52,7.48-7.76,3.43-.19,6.89-.18,10.32-.01,4.36.21,7.51,3.46,7.66,7.6.15,4.28-3,7.8-7.48,8.22-1.71.16-3.44.03-5.16.03,0,0,0,0,0-.01Z"/>
      <path class="cls-1" d="M284.37,322.63c1.72,0,3.45-.11,5.16.02,4.31.33,7.42,3.63,7.48,7.78.05,3.98-2.79,7.57-6.88,7.92-3.94.34-7.96.35-11.89-.03-4.06-.4-6.84-4.11-6.7-8.08.14-3.98,3.17-7.22,7.27-7.58,1.84-.16,3.7-.03,5.56-.03,0,0,0,0,0-.01Z"/>
      <path class="cls-1" d="M324.02,338.5c-1.72,0-3.45.14-5.16-.03-4.48-.45-7.59-4.01-7.39-8.3.19-4.14,3.34-7.32,7.74-7.52,3.3-.15,6.62-.16,9.92,0,4.57.21,7.78,3.56,7.79,7.87.01,4.28-3.19,7.64-7.74,7.98-1.71.13-3.44.02-5.16.02v-.02Z"/>
      <path class="cls-1" d="M364.22,322.64c1.72,0,3.45-.12,5.16.02,4.31.34,7.42,3.63,7.47,7.78.05,3.98-2.8,7.57-6.88,7.92-3.94.34-7.96.35-11.89-.03-4.06-.4-6.84-4.11-6.69-8.08.15-3.98,3.17-7.22,7.27-7.57,1.84-.16,3.7-.03,5.56-.03Z"/>
      <path class="cls-1" d="M284.37,360.96c1.72,0,3.45-.11,5.16.02,4.31.34,7.42,3.63,7.48,7.78.05,3.98-2.79,7.57-6.88,7.92-3.94.34-7.96.35-11.89-.03-4.06-.4-6.84-4.11-6.69-8.08.14-3.98,3.17-7.22,7.27-7.57,1.84-.16,3.7-.03,5.56-.03,0,0,0,0,0-.01Z"/>
      <path class="cls-1" d="M324.37,376.77c-1.98,0-3.99.21-5.95-.04-4.24-.54-7.16-4.15-6.95-8.28.21-3.99,3.25-7.2,7.39-7.44,3.43-.2,6.89-.19,10.32-.03,4.56.21,7.76,3.6,7.74,7.92-.01,4.13-3.07,7.48-7.4,7.9-1.7.17-3.44.03-5.16.03,0-.02,0-.03,0-.05Z"/>
      <path class="cls-1" d="M364.14,376.8c-1.85,0-3.72.17-5.55-.03-4.28-.48-7.29-3.95-7.2-8.08.09-4.14,3.22-7.47,7.55-7.7,3.43-.18,6.89-.18,10.32,0,4.35.22,7.48,3.51,7.59,7.66.11,4.13-2.88,7.63-7.15,8.12-1.83.21-3.7.03-5.55.04Z"/>
    </g>
  </g>
</svg>