<?xml version="1.0" encoding="UTF-8"?>
<svg id="Layer_2" xmlns="http://www.w3.org/2000/svg" viewBox="0 0 164.45 164.45">
  <defs>
    <style>
      .cls-1 {
        fill: #fff;
      }
    </style>
  </defs>
  <g id="Layer_1-2" data-name="Layer_1">
    <circle class="cls-1" cx="82.22" cy="82.22" r="82.22"/>
    <g id="_x34_06gHd">
      <g>
        <path d="M82.8,32.46c13.47,7.78,26.93,15.59,40.43,23.32,1.77,1.01,2.56,2.26,2.47,4.28-.11,2.59,0,5.18-.04,7.77-.02,1.57-1.07,2.48-2.4,2.17-.98-.23-1.53-.97-1.54-2.17-.02-2.01,0-4.01,0-6.02-.45-.13-.71.16-1.01.32-11.91,6.17-23.82,12.36-35.74,18.52-.71.36-.95.77-.94,1.56.04,4.96.02,9.91.02,14.87q0,1.14.97.64c3.73-1.94,7.46-3.89,11.2-5.8.59-.3.83-.65.81-1.33-.06-1.49,0-2.98-.02-4.47-.02-1.84.78-3.15,2.43-3.97,1.13-.56,2.23-1.19,3.36-1.73.59-.28.84-.61.83-1.31-.02-3.36,2.66-5.89,6.06-5.81,3.14.08,5.7,2.83,5.55,6.05-.11,2.21-1.18,3.89-3.14,4.91-1.96,1.03-3.96.94-5.8-.29-.68-.45-1.14-.45-1.8-.06-.94.57-1.93,1.06-2.93,1.52-.52.24-.68.57-.67,1.12.04,1.49-.02,2.98.03,4.47.07,1.98-.82,3.3-2.56,4.19-4.52,2.31-9.02,4.67-13.53,6.99-.49.25-.82.48-.82,1.14.03,7.58.02,15.16.02,22.74,0,.19.03.37.04.56.38.12.58-.14.81-.27,12.02-6.93,24.04-13.88,36.07-20.8.54-.31.77-.64.76-1.29-.04-2.46-.03-4.92,0-7.39,0-.64-.11-.82-.74-.47-4.58,2.54-9.17,5.07-13.77,7.57-.6.32-.45.77-.46,1.23-.08,2.98-2.15,5.23-5.24,5.67-2.58.37-5.29-1.44-6.12-4.08-.73-2.32.08-4.88,2.01-6.34,2.02-1.53,4.75-1.64,6.79-.18.57.41.96.4,1.55.08,5.06-2.82,10.13-5.61,15.22-8.38.56-.3.8-.62.78-1.27-.05-1.52-.03-3.05-.01-4.57.01-1.39.81-2.29,1.98-2.29,1.14,0,1.95.85,1.96,2.2.02,6.48.01,12.96,0,19.44,0,1.27-.58,2.2-1.69,2.85-13.34,7.69-26.67,15.39-40,23.1-1.18.68-2.29.7-3.48,0-13.47-7.79-26.95-15.57-40.44-23.33-1.02-.59-1.31-1.41-1.3-2.5.01-8.29,0-16.59,0-24.88,0-7.19.02-14.39-.02-21.58,0-1.39.47-2.25,1.7-2.96,13.7-7.85,27.36-15.76,41.04-23.65.06-.03.1-.08.15-.12.39,0,.78,0,1.17,0ZM80.1,93.31c0-4.05,0-7.9,0-11.75,0-.59-.45-.66-.79-.84-11.92-6.24-23.85-12.46-35.77-18.7-.62-.33-.85-.37-.85.48.02,9.66.02,19.31,0,28.97,0,.55.16.85.67,1.12,6.31,3.28,12.62,6.57,18.91,9.88.47.25.79.25,1.2-.1,1.04-.85,2.28-1.24,3.61-1.22,3.19.06,5.8,2.76,5.75,5.91-.05,3.16-2.63,5.71-5.8,5.73-3.25.02-5.78-2.46-5.83-5.74,0-.52-.12-.81-.6-1.06-5.71-2.96-11.42-5.94-17.11-8.94-.64-.33-.81-.25-.8.49.03,2.27.03,4.54,0,6.8,0,.6.19.93.7,1.22,2.29,1.28,4.55,2.6,6.82,3.91,9.67,5.58,19.33,11.16,28.99,16.73.88.51.88.5.88-.53,0-9.04,0-18.08,0-27.12,0-.53-.1-.88-.63-1.15-6.98-3.62-13.94-7.26-20.9-10.91-.48-.25-.79-.18-1.2.14-1.06.82-2.29,1.22-3.62,1.17-3.18-.1-5.72-2.75-5.69-5.87.03-3.17,2.58-5.73,5.76-5.77,3.25-.04,5.83,2.42,5.87,5.7,0,.68.28.95.81,1.22,3.88,2,7.74,4.04,11.61,6.06,2.6,1.36,5.21,2.71,7.99,4.16ZM103.92,66.42c-4.09-2.32-8-4.53-11.9-6.77-.46-.26-.75-.13-1.13.12-1.43.95-3,1.18-4.64.75-3.04-.8-4.8-3.67-4.22-6.78.52-2.8,3.3-4.93,6.07-4.65,3.26.33,5.5,2.77,5.4,5.97-.03.74.23,1.08.83,1.42,4.34,2.43,8.68,4.89,12.99,7.38.55.32.96.32,1.5.04,3.35-1.76,6.71-3.49,10.06-5.25.21-.11.5-.14.56-.45-.11-.08-.21-.16-.32-.22-12.1-6.99-24.2-13.97-36.29-20.98-.52-.3-.86-.18-1.31.08-7.45,4.31-14.9,8.6-22.35,12.9-.26.15-.6.23-.79.63,1.64.86,3.28,1.67,4.87,2.58.64.36,1.04.3,1.61-.14,2.1-1.62,5.06-1.53,7.1.14,2.06,1.69,2.74,4.54,1.64,6.94-1.07,2.34-3.7,3.78-6.11,3.36-2.86-.5-4.74-2.55-5-5.5-.05-.52-.12-.88-.65-1.15-2.39-1.21-4.76-2.48-7.14-3.71-.24-.13-.46-.3-.8-.1-2.98,1.74-5.97,3.45-9.03,5.22.29.18.47.31.66.41,11.98,6.25,23.96,12.5,35.93,18.77.49.26.85.22,1.32-.02,4.7-2.46,9.41-4.9,14.11-7.34,2.29-1.19,4.58-2.38,7.03-3.64ZM70.18,57.78c.03-1.07-.78-1.95-1.83-1.99-1.04-.04-1.91.82-1.92,1.89-.01,1.05.73,1.86,1.77,1.92,1.05.06,1.95-.76,1.98-1.82ZM109.38,81.01c1.02.03,1.94-.86,1.95-1.89,0-.98-.83-1.87-1.82-1.93-1-.06-1.96.83-2,1.85-.04,1.01.85,1.94,1.87,1.97ZM68.88,106.99c0-1.09-.81-1.88-1.91-1.87-1.03.01-1.84.81-1.87,1.83-.02,1.04.82,1.92,1.88,1.93,1.06.01,1.9-.83,1.9-1.89ZM85.85,54.9c0,1.08.82,1.9,1.89,1.89,1.06-.01,1.89-.86,1.87-1.92-.02-1.02-.83-1.82-1.86-1.83-1.09-.01-1.9.78-1.9,1.87ZM53.77,83.84c1.1.06,1.97-.69,2.03-1.75.06-1.07-.73-1.95-1.78-2.01-1.03-.05-1.89.7-1.96,1.72-.08,1.11.65,1.97,1.72,2.04ZM100.95,106.98c1.07,0,1.9-.84,1.88-1.9-.02-1.06-.88-1.88-1.94-1.86-1.02.02-1.81.83-1.82,1.87,0,1.09.79,1.9,1.88,1.89Z"/>
        <path d="M123.57,78.93c-1.11,0-1.95-.84-1.93-1.96.01-1.06.84-1.9,1.89-1.92,1.07-.02,2,.87,2.01,1.92.01,1.06-.88,1.95-1.97,1.95Z"/>
      </g>
    </g>
  </g>
</svg>